<?xml version="1.0" encoding="UTF-8" standalone="no"?>
<!DOCTYPE svg PUBLIC "-//W3C//DTD SVG 1.1//EN"
 "http://www.w3.org/Graphics/SVG/1.1/DTD/svg11.dtd">
<!-- Generated by graphviz version 2.43.0 (0)
 -->
<!-- Title: example3 Pages: 1 -->
<svg width="320pt" height="67pt"
 viewBox="0.00 0.00 319.56 67.00" xmlns="http://www.w3.org/2000/svg" xmlns:xlink="http://www.w3.org/1999/xlink">
<g id="graph0" class="graph" transform="scale(1 1) rotate(0) translate(4 63)">
<title>example3</title>
<polygon fill="white" stroke="transparent" points="-4,4 -4,-63 315.56,-63 315.56,4 -4,4"/>
<text text-anchor="middle" x="155.78" y="-7.8" font-family="Times,serif" font-size="14.00">example3</text>
<!-- B -->
<g id="node1" class="node">
<title>B</title>
<polygon fill="none" stroke="black" points="176.33,-41 155.06,-59 112.5,-59 91.22,-41 112.5,-23 155.06,-23 176.33,-41"/>
<text text-anchor="middle" x="133.78" y="-37.3" font-family="Times,serif" font-size="14.00">bravo</text>
</g>
<!-- C -->
<g id="node3" class="node">
<title>C</title>
<polygon fill="none" stroke="black" points="311.56,-59 257.56,-59 257.56,-23 311.56,-23 311.56,-59"/>
<text text-anchor="middle" x="284.56" y="-37.3" font-family="Times,serif" font-size="14.00">C</text>
</g>
<!-- B&#45;&gt;C -->
<g id="edge2" class="edge">
<title>B&#45;&gt;C</title>
<path fill="none" stroke="red" d="M176.62,-41C198.82,-41 225.85,-41 247.17,-41"/>
<polygon fill="red" stroke="red" points="247.44,-44.5 257.44,-41 247.44,-37.5 247.44,-44.5"/>
<text text-anchor="middle" x="217.06" y="-44.8" font-family="Times,serif" font-size="14.00">B to C</text>
</g>
<!-- A -->
<g id="node2" class="node">
<title>A</title>
<polygon fill="none" stroke="black" points="54,-59 0,-59 0,-23 54,-23 54,-59"/>
<text text-anchor="middle" x="27" y="-37.3" font-family="Times,serif" font-size="14.00">A</text>
</g>
<!-- A&#45;&gt;B -->
<g id="edge1" class="edge">
<title>A&#45;&gt;B</title>
<path fill="none" stroke="red" stroke-dasharray="5,2" d="M54.17,-41C62.36,-41 71.7,-41 81.02,-41"/>
<polygon fill="red" stroke="red" points="81.06,-44.5 91.06,-41 81.06,-37.5 81.06,-44.5"/>
</g>
</g>
</svg>
