<?xml version="1.0" encoding="UTF-8" standalone="no"?>
<!DOCTYPE svg PUBLIC "-//W3C//DTD SVG 1.1//EN"
 "http://www.w3.org/Graphics/SVG/1.1/DTD/svg11.dtd">
<!-- Generated by graphviz version 2.43.0 (0)
 -->
<!-- Title: example4 Pages: 1 -->
<svg width="746pt" height="137pt"
 viewBox="0.00 0.00 746.28 137.00" xmlns="http://www.w3.org/2000/svg" xmlns:xlink="http://www.w3.org/1999/xlink">
<g id="graph0" class="graph" transform="scale(1 1) rotate(0) translate(4 133)">
<title>example4</title>
<polygon fill="white" stroke="transparent" points="-4,4 -4,-133 742.28,-133 742.28,4 -4,4"/>
<g id="clust2" class="cluster">
<title>cluster_1</title>
<polygon fill="limegreen" stroke="black" points="247.68,-46 247.68,-121 364.68,-121 364.68,-46 247.68,-46"/>
<text text-anchor="middle" x="306.18" y="-105.8" font-family="Times,serif" font-size="14.00">cluster_1</text>
</g>
<!-- Outside of Sub&#45;graph -->
<g id="node1" class="node">
<title>Outside of Sub&#45;graph</title>
<ellipse fill="none" stroke="black" cx="109.84" cy="-18" rx="109.68" ry="18"/>
<text text-anchor="middle" x="109.84" y="-14.3" font-family="Times,serif" font-size="14.00">Outside of Sub&#45;graph</text>
</g>
<!-- In subgraph_1 -->
<g id="node2" class="node">
<title>In subgraph_1</title>
<polygon fill="none" stroke="black" points="198.96,-72 154.4,-90 65.28,-90 20.72,-72 65.28,-54 154.4,-54 198.96,-72"/>
<text text-anchor="middle" x="109.84" y="-68.3" font-family="Times,serif" font-size="14.00">In subgraph_1</text>
</g>
<!-- In cluster_1 -->
<g id="node3" class="node">
<title>In cluster_1</title>
<polygon fill="none" stroke="black" points="356.68,-90 255.68,-90 255.68,-54 356.68,-54 356.68,-90"/>
<text text-anchor="middle" x="306.18" y="-68.3" font-family="Times,serif" font-size="14.00">In cluster_1</text>
</g>
<!-- In subgraph_1&#45;&gt;In cluster_1 -->
<g id="edge1" class="edge">
<title>In subgraph_1&#45;&gt;In cluster_1</title>
<path fill="none" stroke="black" d="M199.2,-72C214.77,-72 230.65,-72 245.21,-72"/>
<polygon fill="black" stroke="black" points="245.56,-75.5 255.56,-72 245.56,-68.5 245.56,-75.5"/>
</g>
<!-- In anonymous subgraph -->
<g id="node4" class="node">
<title>In anonymous subgraph</title>
<polygon fill="none" stroke="black" points="666.29,-90 464.68,-90 392.88,-54 738.09,-54 666.29,-90"/>
<text text-anchor="middle" x="565.48" y="-68.3" font-family="Times,serif" font-size="14.00">In anonymous subgraph</text>
</g>
<!-- In cluster_1&#45;&gt;In anonymous subgraph -->
<g id="edge2" class="edge">
<title>In cluster_1&#45;&gt;In anonymous subgraph</title>
<path fill="none" stroke="black" d="M356.79,-72C374.84,-72 396.27,-72 418.4,-72"/>
<polygon fill="black" stroke="black" points="418.61,-75.5 428.61,-72 418.61,-68.5 418.61,-75.5"/>
</g>
</g>
</svg>
