<?xml version="1.0" encoding="UTF-8" standalone="no"?>
<!DOCTYPE svg PUBLIC "-//W3C//DTD SVG 1.1//EN"
 "http://www.w3.org/Graphics/SVG/1.1/DTD/svg11.dtd">
<!-- Generated by graphviz version 2.43.0 (0)
 -->
<!-- Title: example3 Pages: 1 -->
<svg width="173pt" height="122pt"
 viewBox="0.00 0.00 173.00 122.00" xmlns="http://www.w3.org/2000/svg" xmlns:xlink="http://www.w3.org/1999/xlink">
<g id="graph0" class="graph" transform="scale(1 1) rotate(0) translate(4 118)">
<title>example3</title>
<polygon fill="white" stroke="transparent" points="-4,4 -4,-118 169,-118 169,4 -4,4"/>
<text text-anchor="middle" x="82.5" y="-7.8" font-family="Times,serif" font-size="14.00">example3</text>
<g id="clust2" class="cluster">
<title>cluster_1</title>
<polygon fill="none" stroke="black" points="82,-31 82,-106 162,-106 162,-31 82,-31"/>
<text text-anchor="middle" x="122" y="-90.8" font-family="Times,serif" font-size="14.00">cluster 1</text>
</g>
<!-- A -->
<g id="node1" class="node">
<title>A</title>
<polygon fill="none" stroke="black" points="54,-75 0,-75 0,-39 54,-39 54,-75"/>
<text text-anchor="middle" x="27" y="-53.3" font-family="Times,serif" font-size="14.00">A</text>
</g>
<!-- B -->
<g id="node2" class="node">
<title>B</title>
<ellipse fill="none" stroke="black" cx="122" cy="-57" rx="27" ry="18"/>
<text text-anchor="middle" x="122" y="-53.3" font-family="Times,serif" font-size="14.00">B</text>
</g>
<!-- A&#45;&gt;B -->
<g id="edge1" class="edge">
<title>A&#45;&gt;B</title>
<path fill="none" stroke="black" d="M54.4,-57C63.81,-57 74.57,-57 84.66,-57"/>
<polygon fill="black" stroke="black" points="84.85,-60.5 94.85,-57 84.85,-53.5 84.85,-60.5"/>
</g>
</g>
</svg>
