<?xml version="1.0" encoding="UTF-8" standalone="no"?>
<!DOCTYPE svg PUBLIC "-//W3C//DTD SVG 1.1//EN"
 "http://www.w3.org/Graphics/SVG/1.1/DTD/svg11.dtd">
<!-- Generated by graphviz version 2.43.0 (0)
 -->
<!-- Title: graphviz1 Pages: 1 -->
<svg width="90pt" height="260pt"
 viewBox="0.00 0.00 89.89 260.00" xmlns="http://www.w3.org/2000/svg" xmlns:xlink="http://www.w3.org/1999/xlink">
<g id="graph0" class="graph" transform="scale(1 1) rotate(0) translate(4 256)">
<title>graphviz1</title>
<polygon fill="white" stroke="transparent" points="-4,4 -4,-256 85.89,-256 85.89,4 -4,4"/>
<!-- A -->
<g id="node1" class="node">
<title>A</title>
<ellipse fill="none" stroke="black" cx="40.95" cy="-234" rx="40.89" ry="18"/>
<text text-anchor="middle" x="40.95" y="-230.3" font-family="Times,serif" font-size="14.00">Node1</text>
</g>
<!-- B -->
<g id="node2" class="node">
<title>B</title>
<ellipse fill="none" stroke="black" cx="40.95" cy="-162" rx="40.89" ry="18"/>
<text text-anchor="middle" x="40.95" y="-158.3" font-family="Times,serif" font-size="14.00">Node2</text>
</g>
<!-- A&#45;&gt;B -->
<g id="edge1" class="edge">
<title>A&#45;&gt;B</title>
<path fill="none" stroke="black" d="M40.95,-215.7C40.95,-207.98 40.95,-198.71 40.95,-190.11"/>
<polygon fill="black" stroke="black" points="44.45,-190.1 40.95,-180.1 37.45,-190.1 44.45,-190.1"/>
</g>
<!-- C -->
<g id="node3" class="node">
<title>C</title>
<ellipse fill="none" stroke="black" cx="40.95" cy="-90" rx="40.89" ry="18"/>
<text text-anchor="middle" x="40.95" y="-86.3" font-family="Times,serif" font-size="14.00">Node3</text>
</g>
<!-- B&#45;&gt;C -->
<g id="edge2" class="edge">
<title>B&#45;&gt;C</title>
<path fill="none" stroke="black" d="M40.95,-143.7C40.95,-135.98 40.95,-126.71 40.95,-118.11"/>
<polygon fill="black" stroke="black" points="44.45,-118.1 40.95,-108.1 37.45,-118.1 44.45,-118.1"/>
</g>
<!-- D -->
<g id="node4" class="node">
<title>D</title>
<ellipse fill="none" stroke="black" cx="40.95" cy="-18" rx="40.89" ry="18"/>
<text text-anchor="middle" x="40.95" y="-14.3" font-family="Times,serif" font-size="14.00">Node4</text>
</g>
<!-- C&#45;&gt;D -->
<g id="edge3" class="edge">
<title>C&#45;&gt;D</title>
<path fill="none" stroke="black" d="M40.95,-71.7C40.95,-63.98 40.95,-54.71 40.95,-46.11"/>
<polygon fill="black" stroke="black" points="44.45,-46.1 40.95,-36.1 37.45,-46.1 44.45,-46.1"/>
</g>
</g>
</svg>
