<?xml version="1.0" encoding="UTF-8" standalone="no"?>
<!DOCTYPE svg PUBLIC "-//W3C//DTD SVG 1.1//EN"
 "http://www.w3.org/Graphics/SVG/1.1/DTD/svg11.dtd">
<!-- Generated by graphviz version 2.43.0 (0)
 -->
<!-- Title: structs Pages: 1 -->
<svg width="296pt" height="174pt"
 viewBox="0.00 0.00 295.50 174.00" xmlns="http://www.w3.org/2000/svg" xmlns:xlink="http://www.w3.org/1999/xlink">
<g id="graph0" class="graph" transform="scale(1 1) rotate(0) translate(4 170)">
<title>structs</title>
<polygon fill="white" stroke="transparent" points="-4,4 -4,-170 291.5,-170 291.5,4 -4,4"/>
<text text-anchor="middle" x="143.75" y="-7.8" font-family="Times,serif" font-size="14.00">record&#45;based shape</text>
<!-- struct1 -->
<g id="node1" class="node">
<title>struct1</title>
<polygon fill="none" stroke="black" points="2,-129.5 2,-165.5 165,-165.5 165,-129.5 2,-129.5"/>
<text text-anchor="middle" x="22.5" y="-143.8" font-family="Times,serif" font-size="14.00">left</text>
<polyline fill="none" stroke="black" points="43,-129.5 43,-165.5 "/>
<text text-anchor="middle" x="78" y="-143.8" font-family="Times,serif" font-size="14.00">mid dle</text>
<polyline fill="none" stroke="black" points="113,-129.5 113,-165.5 "/>
<text text-anchor="middle" x="139" y="-143.8" font-family="Times,serif" font-size="14.00">right</text>
</g>
<!-- struct2 -->
<g id="node2" class="node">
<title>struct2</title>
<polygon fill="none" stroke="black" points="0,-40 0,-76 85,-76 85,-40 0,-40"/>
<text text-anchor="middle" x="21" y="-54.3" font-family="Times,serif" font-size="14.00">one</text>
<polyline fill="none" stroke="black" points="42,-40 42,-76 "/>
<text text-anchor="middle" x="63.5" y="-54.3" font-family="Times,serif" font-size="14.00">two</text>
</g>
<!-- struct1&#45;&gt;struct2 -->
<g id="edge1" class="edge">
<title>struct1:f1&#45;&gt;struct2:f0</title>
<path fill="none" stroke="black" d="M77.5,-129C77.5,-98.59 32.68,-108.19 22.53,-86.84"/>
<polygon fill="black" stroke="black" points="25.95,-86.09 20.5,-77 19.09,-87.5 25.95,-86.09"/>
</g>
<!-- struct3 -->
<g id="node3" class="node">
<title>struct3</title>
<polygon fill="none" stroke="black" points="103.5,-23.5 103.5,-92.5 287.5,-92.5 287.5,-23.5 103.5,-23.5"/>
<text text-anchor="middle" x="132" y="-61.8" font-family="Times,serif" font-size="14.00">hello</text>
<text text-anchor="middle" x="132" y="-46.8" font-family="Times,serif" font-size="14.00">world</text>
<polyline fill="none" stroke="black" points="160.5,-23.5 160.5,-92.5 "/>
<text text-anchor="middle" x="198" y="-77.3" font-family="Times,serif" font-size="14.00">b</text>
<polyline fill="none" stroke="black" points="160.5,-69.5 235.5,-69.5 "/>
<text text-anchor="middle" x="172.5" y="-54.3" font-family="Times,serif" font-size="14.00">c</text>
<polyline fill="none" stroke="black" points="184.5,-46.5 184.5,-69.5 "/>
<text text-anchor="middle" x="197.5" y="-54.3" font-family="Times,serif" font-size="14.00">d</text>
<polyline fill="none" stroke="black" points="210.5,-46.5 210.5,-69.5 "/>
<text text-anchor="middle" x="223" y="-54.3" font-family="Times,serif" font-size="14.00">e</text>
<polyline fill="none" stroke="black" points="160.5,-46.5 235.5,-46.5 "/>
<text text-anchor="middle" x="198" y="-31.3" font-family="Times,serif" font-size="14.00">f</text>
<polyline fill="none" stroke="black" points="235.5,-23.5 235.5,-92.5 "/>
<text text-anchor="middle" x="248.5" y="-54.3" font-family="Times,serif" font-size="14.00">g</text>
<polyline fill="none" stroke="black" points="261.5,-23.5 261.5,-92.5 "/>
<text text-anchor="middle" x="274.5" y="-54.3" font-family="Times,serif" font-size="14.00">h</text>
</g>
<!-- struct1&#45;&gt;struct3 -->
<g id="edge2" class="edge">
<title>struct1:f2&#45;&gt;struct3:here</title>
<path fill="none" stroke="black" d="M139.5,-129C139.5,-116.65 160.82,-93.17 177.61,-76.6"/>
<polygon fill="black" stroke="black" points="180.16,-79.01 184.91,-69.54 175.29,-73.98 180.16,-79.01"/>
</g>
</g>
</svg>
